<svg width="33" height="32" viewBox="0 0 33 32" fill="none" xmlns="http://www.w3.org/2000/svg">
<path d="M32.0405 15.3266C32.0405 14.6589 31.9692 13.999 31.8243 13.3469C31.8176 13.2728 31.817 13.1981 31.803 13.1251C31.3672 10.8258 30.4691 8.72198 29.119 6.81248C28.3614 5.74203 27.501 4.76256 26.485 3.92743C26.4182 3.86341 26.3547 3.79545 26.2839 3.73704C23.4719 1.41867 20.2488 0.165699 16.6044 0.0146234C15.5862 -0.0274981 14.5702 0.0174315 13.5655 0.211752C13.4818 0.218492 13.397 0.218492 13.315 0.233655C11.1696 0.638584 9.15396 1.38105 7.33263 2.59976C3.43217 5.20905 1.01889 8.81971 0.227007 13.448C-0.306533 16.5667 0.10345 19.5921 1.42494 22.4879C4.42175 29.0543 11.6161 33.3889 19.4086 31.5917C25.656 30.1506 29.6756 26.1811 31.5306 20.0454C31.9945 18.511 32.1197 16.9267 32.0405 15.3266ZM30.3596 19.7084C28.6618 25.1741 25.1444 28.9077 19.5563 30.268C13.329 31.7832 8.17786 29.7496 4.23417 24.7377C2.19043 22.1408 1.15761 19.1406 1.21827 15.8225C1.29409 11.6974 2.90425 8.21316 5.85725 5.36237C7.85774 3.43096 10.2368 2.15945 12.9623 1.55852C12.9977 1.55065 13.0303 1.53156 13.0645 1.51752C13.0802 1.53212 13.0965 1.54335 13.1134 1.55178C13.1285 1.53268 13.1448 1.5164 13.1622 1.50404C13.8328 1.41306 14.5006 1.29624 15.1779 1.25974C19.0301 1.05531 22.4312 2.21224 25.4157 4.63957C26.3777 5.4219 27.2331 6.316 27.952 7.31344C29.4335 9.37122 30.4495 11.6368 30.7606 14.1849C30.8729 15.1014 30.8875 16.0186 30.8606 16.9385H30.8589C30.8589 16.9385 30.8538 16.9413 30.851 16.9435C30.8538 16.9475 30.8566 16.9514 30.86 16.9548C30.7584 17.8848 30.6382 18.8126 30.3596 19.7084Z" fill="white"/>
<path d="M28.4877 15.8248C24.4042 11.7733 20.3184 7.72398 16.2388 3.66852C16.0815 3.51239 16.004 3.48544 15.8299 3.65954C12.8461 6.64118 9.8543 9.61496 6.86367 12.5904C5.78368 13.6648 4.702 14.7381 3.62088 15.8119C3.49227 15.8933 3.38668 15.9781 3.57482 16.1084C3.7405 16.2662 3.90618 16.4235 4.07186 16.5813C4.14712 16.6633 4.219 16.7487 4.29763 16.8273C8.129 20.6384 11.9632 24.4479 15.7895 28.2652C15.9782 28.4534 16.0692 28.491 16.2809 28.2787C18.4724 26.0805 20.679 23.897 22.8788 21.7066C23.7859 20.8036 24.6856 19.8937 25.5887 18.9867C26.576 18.0179 27.5616 17.0474 28.5523 16.0826C28.6978 15.9405 28.5557 15.8927 28.4877 15.8248ZM16.6437 25.9823V23.4022C16.6426 22.4761 16.6426 21.5494 16.6415 20.6233V20.6025C16.6409 20.1234 16.6409 19.6449 16.6398 19.1664V19.1462C16.6392 18.6144 16.6387 18.0825 16.6375 17.5507V17.545C16.6375 17.3311 16.637 17.1176 16.6364 16.9037V16.8806C16.6364 16.7397 16.6426 16.6549 16.8465 16.6554C18.8419 16.6616 20.8373 16.6627 22.8322 16.6633H22.8491C23.8403 16.6633 24.8316 16.6633 25.8228 16.6639C25.8577 16.6639 25.8925 16.67 25.9902 16.6785C22.8895 19.8089 19.7995 22.8799 16.6437 25.9823ZM16.646 6.05822C16.7707 6.09585 16.8364 6.18739 16.9116 6.26096C17.9343 7.26289 18.9554 8.26707 19.9775 9.26956C20.0438 9.33471 20.1157 9.39368 20.1847 9.45546C20.2179 9.48803 20.251 9.52005 20.2842 9.55206C20.4038 9.70257 20.538 9.83905 20.6924 9.95418C20.711 10.0036 20.7447 10.0379 20.7947 10.0553C20.8199 10.112 20.8604 10.153 20.9177 10.1766C21.3759 10.6416 21.8297 11.1106 22.2925 11.5711C23.2916 12.564 24.2952 13.553 25.2966 14.5432C25.3185 14.5993 25.3573 14.6392 25.4134 14.6611C25.432 14.7139 25.4673 14.7499 25.5201 14.7684C25.542 14.8251 25.5808 14.8644 25.6375 14.8863C25.6566 14.9386 25.692 14.9739 25.7442 14.993C25.806 15.0711 25.8678 15.1486 25.9284 15.225C25.8689 15.2997 25.7981 15.2677 25.7386 15.2677C22.8098 15.2682 19.8803 15.2643 16.9515 15.2705C16.7201 15.271 16.6359 15.2385 16.637 14.9734C16.6415 13.4896 16.642 12.0052 16.6409 10.5214V10.5057C16.6449 10.3018 16.6493 10.1002 16.6595 9.89633C16.6684 9.70594 16.6538 9.51331 16.6404 9.32011V9.30494C16.6392 8.27437 16.6376 7.24436 16.637 6.21379C16.637 6.16886 16.642 6.12337 16.646 6.05822ZM15.3059 6.16212C15.3408 6.2267 15.3531 6.30084 15.3498 6.38957C15.3481 6.43282 15.3453 6.49123 15.3593 6.53616V7.16012C15.3172 7.22863 15.3492 7.32692 15.3492 7.40105C15.343 9.94632 15.3441 12.4916 15.3441 15.0368C15.3441 15.0784 15.3464 15.1194 15.3514 15.1587C15.334 15.2306 15.2835 15.2733 15.138 15.2727C12.2109 15.2637 9.28369 15.2665 6.35597 15.2665H6.14311C9.20057 12.1962 12.2142 9.18532 15.3059 6.16212ZM15.3604 25.7801C15.3604 25.8048 15.352 25.8289 15.3391 25.9036C12.2255 22.8546 9.17699 19.7915 6.09032 16.661H7.71677C10.1767 16.661 12.6371 16.6622 15.0976 16.6594C15.2627 16.6594 15.3672 16.6526 15.3666 16.8834C15.3576 19.8488 15.361 22.8142 15.3604 25.7801Z" fill="white"/>
<path d="M11.5802 25.5403C10.9725 25.5425 10.3643 25.5464 9.75658 25.533C7.90435 25.4908 6.57444 24.1469 6.55141 22.2975C6.54411 21.6898 6.54917 21.0821 6.54692 20.4739C6.54692 20.3829 6.56489 20.2863 6.48739 20.2105C6.12907 19.8612 5.77244 19.5113 5.37313 19.1204C5.42255 20.3037 5.34505 21.4258 5.42031 22.5474C5.577 24.8731 7.32645 26.5939 9.6538 26.6663C10.7096 26.6989 11.7672 26.6759 12.8241 26.677C12.8657 26.677 12.9191 26.6927 12.946 26.6242C12.6102 26.3069 12.2693 25.9896 11.9345 25.6655C11.8318 25.5655 11.7183 25.5397 11.5802 25.5403Z" fill="white"/>
<path d="M20.5155 6.46427C21.1052 6.45753 21.6944 6.45472 22.2835 6.46652C23.9673 6.49909 25.3612 7.76161 25.5443 9.43693C25.6173 10.1069 25.5578 10.7831 25.5679 11.456C25.569 11.5481 25.537 11.6497 25.6004 11.7289C25.9329 12.1389 26.3204 12.4938 26.7186 12.8521C26.704 11.616 26.8304 10.3911 26.6456 9.17633C26.3474 7.21179 24.8215 5.64543 22.9434 5.39775C21.6899 5.23208 20.4268 5.37304 19.1682 5.32025C19.4911 5.66228 19.7978 5.97791 20.0932 6.30309C20.2123 6.43394 20.3465 6.46652 20.5155 6.46427Z" fill="white"/>
<path d="M6.40034 11.8261C6.51322 11.7098 6.5486 11.5834 6.5458 11.4239C6.53625 10.891 6.53569 10.358 6.53962 9.82501C6.55478 7.91325 7.94928 6.50134 9.86272 6.46596C10.4423 6.45585 11.0219 6.46764 11.6015 6.46708C11.6846 6.46708 11.8003 6.4873 11.8458 6.44293C12.2109 6.08068 12.563 5.70608 12.9112 5.34215C11.8087 5.34215 10.695 5.29498 9.58641 5.35226C7.39159 5.46627 5.65844 7.15787 5.43042 9.34594C5.31023 10.5023 5.40908 11.6626 5.42536 12.8555C5.74998 12.5118 6.07123 12.1653 6.40034 11.8261Z" fill="white"/>
<path d="M26.7119 21.0232C26.7214 20.4031 26.7141 19.7831 26.7141 19.0929C26.3581 19.4596 26.0233 19.75 25.7425 20.0948C25.5802 20.1925 25.5415 20.3397 25.5409 20.5228C25.5398 21.2804 25.6128 22.0436 25.51 22.7945C25.2977 24.3463 24.0375 25.465 22.4554 25.5302C21.7921 25.5577 21.1271 25.5358 20.4627 25.5369C20.3617 25.5375 20.26 25.5195 20.1752 25.6077C19.8354 25.9598 19.4911 26.308 19.1165 26.6905C20.3869 26.659 21.6191 26.7388 22.8496 26.6365C23.0164 26.6231 23.1832 26.5882 23.3467 26.5512C25.1826 26.1328 26.6344 24.4153 26.6563 22.6389C26.667 22.6131 26.6782 22.5884 26.6782 22.5592V22.512C26.754 22.0178 26.7046 21.5191 26.7119 21.0232Z" fill="white"/>
</svg>
